<?xml version="1.0" encoding="utf-8"?>
<!-- Generator: Adobe Illustrator 27.5.0, SVG Export Plug-In . SVG Version: 6.00 Build 0)  -->
<svg version="1.1" id="Layer_1" xmlns="http://www.w3.org/2000/svg" xmlns:xlink="http://www.w3.org/1999/xlink" x="0px" y="0px"
	 viewBox="0 0 512 512" style="enable-background:new 0 0 512 512;" xml:space="preserve">
<g>
	<path d="M73.14,0C32.8,0,0,32.8,0,73.14v365.71C0,479.2,32.8,512,73.14,512h365.71c40.34,0,73.14-32.8,73.14-73.14V73.14
		C512,32.8,479.2,0,438.86,0H73.14z M176.8,110.51c11.09-2.97,22.74,2.63,27.09,13.26l22.86,54.86c3.89,9.37,1.14,20.11-6.63,26.51
		L192,228.23c18.97,40.23,51.54,72.8,91.77,91.77l23.09-28.23c6.4-7.77,17.14-10.51,26.51-6.63L388.23,308
		c10.63,4.46,16.23,16,13.26,27.09l-13.71,50.29c-2.74,10.06-11.77,16.91-22.06,16.91c-141.37,0-256-114.63-256-256
		c0-10.29,6.86-19.31,16.8-22.06L176.8,110.51z"/>
</g>
</svg>
